<?xml version="1.0" standalone="no"?>
<!DOCTYPE svg PUBLIC "-//W3C//DTD SVG 20010904//EN"
 "http://www.w3.org/TR/2001/REC-SVG-20010904/DTD/svg10.dtd">
<svg version="1.0" xmlns="http://www.w3.org/2000/svg"
 width="236.000000pt" height="304.000000pt" viewBox="0 0 236.000000 304.000000"
 preserveAspectRatio="xMidYMid meet">

<g transform="translate(0.000000,304.000000) scale(0.100000,-0.100000)"
fill="#000000" stroke="none">
<path d="M673 2908 c4 -24 23 -151 42 -283 20 -132 40 -269 45 -305 5 -36 14
-89 18 -118 10 -60 5 -67 -41 -58 -42 8 -56 10 -382 55 -154 22 -281 38 -283
36 -2 -1 18 -32 45 -67 71 -96 312 -410 331 -433 9 -11 24 -31 33 -45 10 -14
27 -35 39 -48 12 -13 20 -25 19 -26 -6 -5 -88 -25 -229 -56 -74 -16 -156 -36
-181 -42 l-46 -13 145 -120 c79 -66 152 -127 162 -135 10 -8 48 -39 84 -69 36
-30 66 -58 66 -62 0 -4 -17 -18 -37 -30 -69 -41 -264 -171 -261 -174 4 -2 238
-97 293 -118 36 -14 40 -18 38 -49 -1 -18 -16 -91 -32 -161 -17 -70 -31 -128
-31 -130 0 -2 59 5 131 15 72 11 137 17 143 15 10 -4 10 -24 0 -93 -7 -49 -13
-100 -13 -113 -1 -22 1 -23 17 -10 9 8 41 26 70 39 l53 24 16 -25 c79 -117
298 -219 469 -219 97 0 94 -4 94 120 l0 108 43 7 c64 11 237 69 305 104 72 37
178 132 222 202 21 32 42 51 59 55 103 25 161 104 147 202 -3 25 -13 56 -21
68 -19 30 -19 97 0 160 19 64 19 93 -3 146 -13 29 -21 80 -25 153 -7 128 -28
196 -87 271 -21 27 -53 74 -70 104 -18 30 -44 65 -59 78 -35 30 -96 62 -118
62 -24 0 -128 53 -178 90 -49 37 -135 70 -179 70 l-33 0 -6 137 c-4 75 -7 200
-7 278 0 78 -3 145 -6 148 -9 8 -27 -13 -121 -135 -40 -54 -76 -98 -79 -98 -9
0 -190 160 -349 309 -126 118 -243 221 -250 221 -4 0 -5 -19 -2 -42z m127
-151 c85 -79 336 -306 378 -342 26 -22 60 -52 76 -67 l28 -28 21 28 c12 15 24
29 27 32 3 3 23 29 45 58 21 28 40 52 42 52 2 0 3 -52 3 -115 l0 -115 -39 0
c-137 0 -308 -66 -394 -152 -183 -183 -261 -447 -259 -870 l2 -197 -44 -26
c-51 -30 -66 -59 -66 -125 0 -31 -4 -50 -12 -50 -21 0 -228 84 -226 91 3 7
100 70 226 148 23 14 42 29 42 32 0 4 -32 33 -71 65 -109 89 -162 133 -184
152 -11 10 -53 44 -93 76 -39 32 -72 61 -72 65 0 5 301 79 389 96 13 2 25 6
27 8 2 2 -29 45 -69 96 -39 51 -81 106 -92 121 -21 30 -133 176 -222 289 -29
36 -53 69 -53 72 0 3 33 0 72 -6 40 -7 116 -18 168 -25 52 -7 102 -13 110 -15
8 -1 42 -6 75 -10 32 -4 66 -8 75 -10 68 -13 150 -16 150 -5 0 19 -79 551 -99
663 -4 26 -5 47 -2 47 3 0 22 -15 41 -33z m610 -686 l0 -108 -29 -6 c-16 -4
-71 -9 -123 -13 -51 -4 -102 -10 -113 -14 -42 -16 65 -32 168 -27 53 3 97 2
97 -3 0 -14 -162 -32 -240 -26 -87 8 -119 -4 -85 -30 17 -13 44 -15 173 -12
140 4 152 3 152 -13 0 -38 -153 -65 -289 -50 -127 14 -218 14 -226 1 -3 -5
-10 -10 -15 -10 -14 0 37 119 79 184 66 101 146 167 236 197 59 19 145 37 183
38 l32 1 0 -109z m154 -61 c5 -5 1 -7 -11 -4 -11 3 -25 -1 -32 -10 -11 -13
-11 -16 3 -16 10 0 16 -8 16 -21 0 -18 -1 -19 -16 -5 -16 17 -29 60 -14 51 5
-3 11 -1 14 4 4 5 1 11 -6 14 -7 2 -2 2 12 0 14 -3 29 -8 34 -13z m33 -32 c-3
-8 -6 -5 -6 6 -1 11 2 17 5 13 3 -3 4 -12 1 -19z m42 -2 c10 -12 8 -13 -8 -9
-12 3 -21 9 -21 14 0 14 16 11 29 -5z m-59 -34 c0 -7 -4 -10 -10 -7 -5 3 -10
16 -10 28 0 18 2 19 10 7 5 -8 10 -21 10 -28z m25 7 c-8 -12 23 -49 42 -49 7
0 13 -4 13 -10 0 -21 -45 1 -60 30 -10 19 -6 40 6 40 3 0 2 -5 -1 -11z m104
-20 c-16 -10 -36 -1 -36 15 0 11 5 12 24 3 16 -7 20 -13 12 -18z m-197 -14
c-2 -14 -6 -25 -8 -25 -2 0 -4 11 -4 25 0 14 4 25 9 25 4 0 6 -11 3 -25z m218
-20 c-11 -13 -8 -15 16 -15 22 0 26 3 14 10 -24 16 1 11 60 -10 30 -11 57 -20
60 -20 3 0 -8 -7 -24 -15 -20 -11 -32 -12 -36 -5 -4 6 -14 8 -23 4 -10 -3 -24
-1 -32 6 -9 7 -18 10 -22 6 -4 -3 2 -13 13 -21 15 -11 16 -14 4 -15 -9 0 -24
15 -34 34 -18 34 -16 56 6 56 7 0 6 -6 -2 -15z m-138 -25 c-8 -21 -9 -22 -16
-5 -4 11 -2 22 6 26 17 11 20 6 10 -21z m95 -2 c-3 -8 -6 -5 -6 6 -1 11 2 17
5 13 3 -3 4 -12 1 -19z m229 -36 c1 -7 0 -8 -3 -2 -7 15 -23 12 -23 -5 0 -8
-4 -15 -10 -15 -14 0 -13 13 2 28 14 14 31 11 34 -6z m-361 -2 c-3 -5 -11 -10
-16 -10 -6 0 -7 5 -4 10 3 6 11 10 16 10 6 0 7 -4 4 -10z m146 -38 c-7 -2 -18
1 -23 6 -8 8 -4 9 13 5 13 -4 18 -8 10 -11z m147 0 c3 -10 -2 -10 -23 0 -22
10 -28 9 -36 -3 -7 -11 -9 -11 -9 4 0 15 7 18 32 15 17 -2 33 -9 36 -16z m92
-17 c14 -19 14 -19 -2 -6 -14 11 -18 11 -18 1 0 -8 -2 -11 -5 -8 -3 3 -3 13 1
22 4 9 7 16 8 14 1 -2 8 -12 16 -23z m-95 -25 c12 -19 -5 -31 -27 -19 -17 9
-18 13 -7 20 18 11 26 11 34 -1z m-437 -17 c-5 -24 -80 -44 -163 -43 -287 4
-325 6 -337 18 -27 27 8 31 172 20 138 -9 177 -8 240 5 41 8 79 15 83 16 5 0
7 -7 5 -16z m272 -17 c186 -63 334 -213 396 -402 27 -84 29 -98 29 -259 -1
-158 -3 -175 -27 -246 -77 -220 -235 -348 -503 -408 l-85 -19 0 108 0 107 38
7 c20 3 61 6 90 6 45 0 53 3 50 17 -5 26 -106 83 -145 83 l-33 0 0 61 c0 46 5
67 20 86 25 32 25 60 0 98 -15 23 -20 47 -20 100 l0 70 19 -31 c11 -17 35 -48
55 -68 71 -70 218 -86 309 -33 57 34 81 62 113 131 22 49 26 68 21 115 -6 72
-41 139 -95 184 -54 46 -101 61 -182 61 -87 0 -148 -30 -201 -96 l-39 -50 0
207 0 208 61 -7 c33 -4 91 -18 129 -30z m-807 -30 c9 -22 70 -34 191 -35 115
-2 155 -13 194 -54 23 -25 92 -136 92 -149 0 -5 -55 -6 -122 -2 -125 6 -127 6
-357 -44 -22 -4 -23 -3 -16 29 4 19 20 60 36 93 46 91 16 90 -33 -1 -103 -192
28 -406 246 -404 212 1 351 205 272 396 -14 33 -83 110 -106 118 -13 4 -13 5
0 10 27 8 134 27 137 23 2 -1 2 -176 1 -387 l-3 -384 -19 35 c-15 26 -21 61
-24 133 -7 149 -36 118 -36 -38 0 -84 6 -104 56 -166 26 -32 29 -43 26 -95
l-3 -59 -100 -6 c-55 -3 -125 -13 -155 -22 -66 -20 -150 -71 -150 -92 0 -13 8
-11 48 8 26 13 68 30 94 37 51 13 71 6 83 -28 2 -10 27 -30 55 -45 27 -16 50
-35 50 -43 0 -24 39 -93 60 -106 18 -12 20 -24 20 -127 l0 -114 -62 7 c-125
13 -231 59 -315 138 -97 93 -184 300 -212 511 -14 101 -15 579 -1 677 24 178
38 226 53 186z m1044 -11 c0 -8 -4 -12 -9 -9 -5 3 -6 10 -3 15 9 13 12 11 12
-6z m-78 -250 c120 -61 167 -197 104 -304 -32 -56 -55 -76 -113 -103 -115 -54
-263 10 -305 130 -32 95 -9 182 63 243 76 64 168 77 251 34z m-480 -31 c10 -9
-22 -87 -52 -126 -51 -66 -113 -100 -196 -106 -59 -4 -77 -1 -113 18 -24 12
-54 32 -67 43 -31 29 -73 119 -61 131 5 5 40 17 77 26 l68 16 31 -33 c34 -36
64 -42 88 -17 18 18 20 30 6 39 -6 4 -8 11 -5 16 5 8 214 1 224 -7z m788 -51
c-3 -10 -5 -4 -5 12 0 17 2 24 5 18 2 -7 2 -21 0 -30z m35 -97 c-3 -5 -9 -1
-13 10 -12 31 -10 39 5 19 8 -11 12 -24 8 -29z m17 -38 c-1 -18 -2 -19 -6 -5
-2 9 -9 15 -14 12 -5 -4 -9 -1 -9 4 0 6 7 11 15 11 9 0 15 -9 14 -22z m-12
-75 c-3 -10 -5 -2 -5 17 0 19 2 27 5 18 2 -10 2 -26 0 -35z m-1449 -265 c9
-87 -1 -100 -37 -49 -27 37 -26 77 1 121 25 39 24 40 36 -72z m1457 52 c29
-56 10 -125 -39 -148 -14 -6 -26 -10 -26 -9 0 2 6 26 14 53 8 27 17 68 21 92
4 23 8 42 11 42 2 0 10 -13 19 -30z m-1489 -187 c17 -13 36 -23 42 -23 7 0 12
-7 12 -17 0 -9 8 -40 17 -69 9 -30 14 -56 11 -59 -7 -7 -188 -38 -192 -34 -2
2 10 57 27 121 19 77 34 115 41 111 6 -4 25 -17 42 -30z m854 -73 c11 -7 4
-10 -27 -10 -24 0 -43 5 -43 10 0 13 50 13 70 0z m-150 -106 c0 -58 -4 -103
-9 -100 -4 3 -16 33 -25 66 -13 46 -21 60 -36 60 -19 0 -80 46 -80 60 0 10 36
16 103 19 l47 1 0 -106z m-540 -160 c0 -8 -6 -14 -14 -14 -9 0 -12 7 -9 20 6
22 23 18 23 -6z"/>
<path d="M1770 1870 c-12 -8 -12 -10 3 -16 10 -3 21 -4 24 0 4 3 0 6 -8 6 -11
0 -11 2 1 10 8 5 11 10 5 10 -5 0 -17 -4 -25 -10z"/>
<path d="M1600 1580 c-23 -15 -6 -22 78 -31 43 -5 98 -16 122 -24 23 -8 56
-15 74 -15 l31 0 -26 26 c-19 19 -45 29 -105 39 -92 17 -153 18 -174 5z"/>
<path d="M1245 1100 c-23 -26 -116 -60 -163 -60 -20 0 -69 9 -107 21 -86 25
-97 27 -102 13 -4 -11 63 -44 131 -65 58 -17 133 -5 225 37 78 35 81 38 65 55
-21 24 -27 24 -49 -1z"/>
<path d="M944 644 l-28 -65 47 -47 c33 -33 50 -43 57 -36 8 8 1 23 -24 52 -30
37 -33 46 -26 74 18 72 20 88 11 88 -5 0 -21 -30 -37 -66z"/>
<path d="M1722 1263 c-32 -28 -32 -72 0 -96 25 -19 29 -19 51 -4 35 23 40 64
11 94 -28 28 -36 28 -62 6z"/>
</g>
</svg>
