<?xml version="1.0" standalone="no"?>
<!DOCTYPE svg PUBLIC "-//W3C//DTD SVG 20010904//EN"
 "http://www.w3.org/TR/2001/REC-SVG-20010904/DTD/svg10.dtd">
<svg version="1.0" xmlns="http://www.w3.org/2000/svg"
 width="794.000000pt" height="681.000000pt" viewBox="0 0 794.000000 681.000000"
 preserveAspectRatio="xMidYMid meet">

<g transform="translate(0.000000,681.000000) scale(0.100000,-0.100000)"
fill="#500450" stroke="none">
<path d="M0 3405 c0 -3020 2 -3405 15 -3405 13 0 15 385 15 3405 0 3020 -2
3405 -15 3405 -13 0 -15 -385 -15 -3405z"/>
<path d="M3722 6573 c-18 -2 -58 -19 -90 -36 -57 -33 -83 -44 -202 -90 -132
-51 -196 -67 -265 -67 -68 0 -70 -14 -7 -42 26 -11 88 -38 137 -61 63 -28 104
-41 135 -41 55 0 136 36 207 92 95 76 157 88 273 51 77 -24 167 -20 238 12 51
22 93 23 177 5 68 -14 90 -10 183 39 71 37 112 31 238 -32 139 -70 137 -70
283 -29 41 12 64 13 92 6 43 -12 98 -68 118 -120 63 -167 86 -202 156 -226 56
-19 80 -17 110 9 22 18 27 33 32 87 10 110 41 109 226 -5 75 -46 155 -94 177
-105 53 -27 67 -51 85 -144 8 -44 23 -88 32 -99 10 -10 49 -35 88 -54 38 -19
78 -41 87 -50 24 -21 23 -56 -1 -77 -28 -26 -36 -72 -17 -100 8 -13 63 -48
122 -77 71 -36 115 -65 134 -89 15 -19 67 -115 115 -213 77 -155 96 -185 152
-242 60 -60 93 -80 93 -55 0 6 -21 55 -46 108 -104 221 -138 337 -96 337 34 0
173 -170 230 -280 18 -36 133 -156 238 -249 65 -57 75 -87 68 -203 l-6 -98 53
-78 c127 -184 136 -209 90 -255 -17 -17 -47 -36 -66 -42 -34 -11 -35 -13 -35
-61 0 -30 10 -74 28 -116 24 -60 27 -81 27 -173 0 -89 -4 -111 -23 -147 -41
-79 -23 -140 68 -228 25 -24 57 -73 80 -120 41 -85 110 -284 130 -375 22 -99
34 -140 42 -140 4 0 9 21 12 48 12 95 28 209 41 287 25 146 38 276 33 338 -3
35 -25 117 -49 187 l-43 125 -7 360 c-3 198 -11 378 -17 400 -66 249 -128 347
-387 614 -104 108 -289 269 -386 337 -295 209 -305 218 -444 429 -121 184
-186 257 -318 355 -45 33 -98 73 -117 88 -122 94 -280 184 -390 222 -138 47
-167 51 -345 48 -375 -6 -527 -2 -620 17 -74 14 -154 18 -455 20 -201 2 -380
1 -398 -2z"/>
<path d="M2757 6384 c-4 -4 16 -32 44 -62 52 -57 121 -183 157 -287 36 -104
48 -205 35 -294 -14 -96 -63 -211 -90 -211 -10 0 -60 45 -113 102 -113 121
-232 222 -367 311 -205 135 -269 161 -560 227 -44 10 -356 14 -365 5 -3 -3 19
-32 48 -64 156 -167 251 -343 286 -531 16 -86 22 -467 8 -501 -18 -43 -64 -48
-137 -14 -243 112 -647 118 -977 14 -33 -11 -88 -24 -123 -30 -34 -6 -61 -15
-58 -20 3 -4 28 -20 56 -34 28 -13 85 -48 127 -77 42 -28 131 -88 197 -132 70
-47 155 -116 205 -166 75 -74 93 -100 143 -200 60 -120 110 -281 111 -359 1
-72 -35 -89 -237 -116 -157 -21 -478 -38 -579 -32 -64 5 -89 3 -97 -7 -8 -9
-1 -18 32 -36 60 -33 116 -79 252 -210 66 -64 162 -148 212 -187 101 -78 318
-203 351 -203 29 0 72 -21 72 -35 0 -6 -35 -27 -77 -46 -138 -61 -334 -214
-418 -327 -65 -88 -75 -129 -19 -87 50 38 285 -5 434 -80 77 -39 254 -146 278
-168 33 -31 27 -55 -34 -132 -56 -69 -168 -286 -192 -370 -6 -22 -18 -63 -26
-92 -18 -60 -20 -89 -6 -98 6 -3 17 1 25 9 49 48 113 91 196 131 98 46 291
113 389 135 30 7 65 16 78 21 13 5 33 9 45 9 12 0 42 7 67 16 83 29 152 3 211
-80 50 -68 219 -234 309 -303 47 -35 132 -87 190 -115 154 -74 185 -84 291
-97 41 -6 92 -13 114 -16 94 -15 394 53 548 124 50 23 167 95 208 128 118 96
192 199 270 378 43 98 87 412 74 525 -11 92 4 121 93 188 83 62 111 104 148
223 12 40 34 78 60 108 75 86 100 126 146 241 53 131 68 184 115 413 7 34 -15
37 -43 6 -10 -12 -41 -34 -69 -50 -44 -26 -60 -29 -135 -29 -119 0 -133 19
-86 122 24 53 82 216 96 273 5 17 20 68 35 115 44 141 76 264 95 375 6 39 18
101 26 139 8 38 12 71 9 74 -2 3 -35 -26 -72 -64 -95 -97 -154 -123 -346 -154
-53 -8 -74 -8 -95 2 -26 13 -27 16 -25 88 10 355 -3 504 -64 690 -13 41 -30
89 -38 105 -7 17 -23 55 -36 85 -13 30 -32 71 -44 90 -12 19 -27 50 -35 68
-12 32 -66 82 -87 82 -6 0 -8 -22 -5 -54 6 -71 -19 -175 -74 -313 -24 -61 -44
-115 -44 -121 0 -11 -29 -37 -35 -31 -2 3 -11 40 -20 84 -9 44 -20 85 -24 90
-4 6 -15 35 -26 65 -82 241 -267 471 -487 608 -120 75 -189 99 -408 147 -41 9
-82 19 -91 21 -8 2 -18 1 -22 -2z m275 -114 c131 -51 270 -126 324 -175 80
-73 107 -100 150 -151 121 -141 189 -284 285 -600 5 -17 9 -60 9 -97 0 -76 12
-85 37 -29 9 20 36 78 60 128 24 50 43 98 43 105 0 8 7 28 16 44 45 81 63 125
69 168 4 25 13 54 20 64 12 16 16 12 40 -42 57 -128 89 -214 119 -325 l31
-115 0 -297 c0 -163 2 -298 5 -300 55 -42 156 -37 390 18 14 4 42 19 62 35 52
41 78 36 59 -13 -5 -13 -14 -41 -20 -63 -49 -184 -96 -349 -111 -395 -10 -30
-26 -82 -35 -115 -23 -81 -53 -159 -87 -225 -15 -30 -28 -62 -28 -71 0 -22 31
-48 71 -59 58 -17 199 -15 241 3 21 9 40 13 42 9 2 -4 -2 -32 -11 -62 -8 -30
-19 -72 -24 -92 -22 -90 -84 -221 -165 -348 -53 -82 -65 -84 -94 -15 -10 23
-28 52 -40 63 -32 30 -118 69 -164 76 -21 3 -49 12 -63 21 -27 18 -27 13 -3
115 5 19 18 80 29 135 11 55 26 123 32 150 18 76 16 240 -4 305 -17 52 -78
164 -114 205 -10 12 -45 40 -78 64 -100 73 -114 91 -183 231 -120 242 -264
399 -461 499 -192 98 -469 107 -726 24 -76 -25 -101 -35 -220 -88 -121 -54
-336 -234 -400 -335 -16 -25 -37 -54 -46 -65 -25 -30 -114 -211 -137 -280 -99
-299 -123 -705 -62 -1065 5 -30 15 -89 21 -130 6 -41 17 -98 25 -127 23 -85
21 -92 -55 -163 -60 -56 -71 -73 -86 -125 -15 -51 -16 -69 -6 -125 14 -74 49
-152 87 -194 38 -40 140 -86 192 -86 24 0 56 -7 72 -15 34 -18 96 -103 84
-115 -5 -5 -31 -11 -59 -14 -61 -7 -149 -28 -410 -95 -65 -17 -247 -101 -294
-136 -55 -40 -76 -40 -61 0 58 153 143 304 226 400 54 64 69 100 54 134 -9 22
-41 46 -165 124 -10 6 -24 17 -31 22 -13 11 -198 105 -229 116 -11 4 -33 12
-50 17 -62 22 -158 42 -201 42 -29 0 -44 4 -44 13 0 13 102 109 188 176 117
92 289 171 372 171 99 0 93 39 -9 56 -161 27 -416 172 -600 340 -161 147 -256
237 -259 245 -2 5 41 9 96 9 199 0 539 52 623 96 51 26 71 63 66 119 -16 152
-58 294 -128 424 -54 100 -207 247 -361 347 -40 25 -88 60 -107 76 -18 16 -58
40 -88 54 -68 32 -70 56 -3 65 25 3 88 15 140 27 192 42 391 55 493 33 23 -5
69 -15 102 -21 105 -20 311 -85 321 -101 3 -5 16 -9 28 -9 46 0 66 110 66 361
1 194 -11 278 -58 425 -42 127 -143 299 -202 343 -43 31 -40 53 8 46 20 -2 78
-9 127 -15 291 -34 523 -137 784 -349 99 -80 270 -259 310 -324 13 -21 28 -36
35 -34 24 8 113 186 132 267 15 63 18 233 5 276 -5 16 -14 49 -21 74 -15 50
-82 190 -111 232 -42 59 -14 61 123 8z m243 -1139 c182 -48 309 -124 452 -270
52 -53 77 -91 129 -194 35 -70 70 -137 79 -150 30 -43 21 -50 -52 -44 -69 5
-125 -6 -210 -44 -24 -11 -47 -19 -53 -19 -6 0 -48 -36 -93 -79 -142 -137
-207 -275 -207 -441 0 -233 103 -379 320 -456 71 -25 82 -26 196 -20 97 5 133
11 184 32 77 31 141 74 164 108 19 30 36 34 36 8 0 -27 -57 -137 -84 -163 -49
-47 -193 -93 -329 -105 -62 -6 -77 -10 -75 -22 5 -24 55 -34 133 -27 143 13
252 55 315 120 42 43 50 44 44 3 -3 -18 2 -82 11 -143 30 -194 37 -275 40
-525 5 -309 -9 -392 -95 -577 -54 -115 -66 -132 -148 -217 -123 -127 -301
-218 -552 -281 -116 -30 -391 -16 -485 25 -11 4 -40 16 -65 25 -116 43 -319
186 -436 307 -89 91 -179 211 -229 304 -98 181 -125 236 -125 258 0 12 -4 26
-9 32 -10 12 -95 279 -115 364 -8 36 -22 106 -31 155 -25 144 -34 187 -47 245
-9 39 -13 152 -13 390 1 330 1 337 28 440 36 144 70 238 127 352 56 113 86
154 189 261 65 67 227 197 245 197 3 0 37 15 76 34 88 43 166 71 300 106 133
35 279 39 385 11z m675 -721 c90 -20 180 -85 253 -182 34 -46 77 -179 77 -242
0 -66 -22 -175 -51 -254 -48 -131 -185 -240 -330 -263 -200 -32 -419 66 -485
217 -22 52 -43 149 -44 203 0 80 40 207 89 279 20 29 40 61 45 70 9 19 111 96
161 123 105 57 186 71 285 49z m438 -1098 c70 -38 105 -78 121 -137 26 -97 2
-159 -92 -233 -36 -28 -68 -48 -71 -44 -2 4 -7 30 -10 57 -11 82 -27 174 -48
278 -11 54 -17 104 -15 112 8 18 37 10 115 -33z m-2405 -469 c9 -27 18 -59 20
-73 5 -23 79 -237 106 -303 17 -43 14 -57 -14 -57 -23 0 -40 6 -113 37 -40 17
-96 72 -119 116 -21 40 -23 180 -3 217 21 39 83 110 96 110 7 0 19 -21 27 -47z"/>
<path d="M3160 4864 c-36 -8 -96 -20 -135 -28 -84 -16 -259 -69 -323 -97 -26
-12 -111 -52 -189 -91 -122 -60 -151 -80 -213 -141 -81 -79 -115 -142 -105
-193 8 -48 29 -59 101 -57 55 1 76 8 176 61 62 33 129 68 148 79 262 146 428
188 740 184 41 -1 135 3 207 8 110 8 140 13 175 33 39 22 43 27 40 58 -8 76
-66 145 -142 168 -115 35 -354 43 -480 16z m365 -45 c44 -6 91 -16 105 -22 42
-18 90 -69 90 -94 0 -18 -9 -28 -32 -37 -35 -14 -226 -27 -398 -27 -171 1
-383 -38 -498 -90 -24 -11 -62 -27 -85 -36 -23 -10 -79 -39 -124 -65 -44 -26
-85 -48 -91 -48 -5 0 -15 -6 -21 -14 -20 -24 -140 -76 -176 -76 -33 0 -35 2
-35 33 0 17 8 42 18 53 31 38 158 149 188 164 16 8 46 25 67 38 46 27 261 122
279 122 7 0 33 7 58 16 46 16 141 41 240 63 141 31 286 38 415 20z"/>
<path d="M2679 4212 c-107 -17 -270 -123 -341 -223 -92 -130 -123 -221 -122
-369 0 -149 34 -230 139 -336 61 -61 80 -74 150 -100 72 -26 91 -29 190 -28
142 2 229 29 348 108 101 66 158 138 202 255 24 63 28 88 27 170 -1 237 -134
431 -346 507 -48 17 -182 26 -247 16z m219 -67 c71 -25 114 -51 165 -100 191
-183 207 -465 37 -658 -112 -127 -295 -191 -479 -168 -44 6 -101 20 -127 33
-65 30 -153 120 -189 193 -25 51 -30 75 -33 158 -5 109 5 156 52 257 55 118
242 279 323 280 10 0 25 5 33 10 23 15 170 12 218 -5z"/>
<path d="M2702 3778 c-15 -15 -16 -146 -2 -184 10 -25 12 -26 27 -11 20 20 31
154 14 185 -13 25 -22 27 -39 10z"/>
<path d="M3540 3396 c0 -13 9 -41 19 -63 11 -21 36 -83 56 -138 65 -176 57
-265 -24 -265 -38 0 -76 20 -100 53 -7 10 -36 62 -63 115 -63 122 -97 169
-109 151 -12 -20 -1 -55 44 -139 55 -102 134 -215 162 -234 14 -9 44 -16 68
-16 35 0 49 6 75 31 58 56 56 145 -7 339 -30 91 -49 134 -71 158 -37 38 -50
40 -50 8z"/>
<path d="M2275 3150 c-10 -16 12 -38 84 -79 147 -86 292 -104 416 -52 11 5 40
14 65 21 83 22 195 83 185 100 -10 16 -63 11 -103 -9 -20 -10 -73 -31 -117
-47 -69 -24 -95 -28 -185 -28 l-105 0 -106 52 c-111 55 -124 59 -134 42z"/>
<path d="M2577 2613 c-60 -97 -73 -192 -36 -264 25 -49 96 -129 115 -129 25 0
15 42 -21 86 -64 78 -78 134 -50 207 37 94 42 112 38 124 -9 22 -22 15 -46
-24z"/>
<path d="M3253 2630 c-61 -4 -124 -12 -140 -17 -15 -6 -53 -16 -83 -23 -66
-14 -144 -37 -185 -54 -16 -7 -57 -23 -90 -36 -67 -26 -85 -37 -85 -54 0 -13
46 -36 72 -36 13 0 28 -20 50 -67 31 -70 63 -113 82 -113 6 0 25 19 41 41 17
22 49 59 72 82 45 44 80 115 70 142 -4 8 -10 15 -14 15 -4 0 -38 -28 -75 -63
-67 -62 -88 -97 -88 -143 0 -40 -17 -27 -29 24 -7 26 -19 62 -27 81 -15 33
-14 36 8 52 26 21 138 56 283 90 86 21 126 24 280 24 212 0 308 -19 457 -90
89 -42 126 -13 46 36 -87 52 -220 93 -358 109 -90 11 -114 11 -287 0z"/>
<path d="M4046 2572 c-3 -5 -10 -39 -15 -75 -10 -70 -36 -114 -97 -169 -31
-28 -51 -68 -33 -68 45 0 123 65 165 136 21 36 24 53 22 111 -2 54 -6 68 -20
71 -9 2 -19 -1 -22 -6z"/>
<path d="M3866 3998 c-63 -12 -106 -42 -106 -74 0 -15 6 -24 15 -24 24 0 138
55 153 73 13 15 9 38 -6 36 -4 -1 -29 -5 -56 -11z"/>
<path d="M2590 6286 c-19 -6 -53 -21 -75 -33 -22 -12 -52 -28 -67 -35 -15 -8
-39 -28 -55 -45 -19 -20 -43 -33 -71 -38 -23 -4 -44 -11 -47 -16 -3 -5 20 -25
52 -45 32 -21 104 -68 161 -106 57 -37 113 -68 123 -68 12 0 47 28 83 66 37
38 84 76 117 92 42 21 53 31 51 47 -5 30 -62 122 -100 161 -30 31 -38 34 -85
33 -29 -1 -68 -6 -87 -13z"/>
<path d="M4235 6231 c-11 -4 -36 -14 -55 -23 -19 -8 -62 -19 -95 -23 -83 -9
-164 -29 -268 -65 -101 -34 -178 -39 -251 -14 -26 9 -49 14 -51 12 -3 -3 24
-36 60 -74 36 -38 77 -88 91 -111 13 -22 32 -44 41 -47 17 -7 43 10 43 29 0
22 35 45 86 56 152 33 236 32 330 -2 111 -42 161 -49 330 -49 165 0 228 -9
309 -45 56 -24 130 -57 200 -90 39 -17 91 -40 117 -50 47 -17 87 -50 75 -61
-6 -7 -62 5 -162 35 -79 24 -153 26 -271 10 -94 -13 -179 2 -296 51 -51 22
-98 32 -180 41 -134 13 -141 9 -109 -60 13 -27 33 -77 45 -112 25 -73 42 -89
146 -125 87 -32 124 -53 210 -125 109 -91 157 -114 262 -129 130 -18 140 -25
186 -124 55 -117 105 -167 224 -227 100 -50 138 -60 138 -35 0 18 -80 155
-129 221 -21 28 -53 75 -73 105 -53 84 -91 116 -196 166 -124 59 -152 79 -152
109 0 34 61 49 162 41 145 -10 217 -64 327 -239 52 -83 190 -268 226 -302 5
-5 43 -39 83 -74 102 -89 112 -113 112 -255 0 -63 5 -127 10 -141 6 -15 51
-68 100 -118 82 -83 92 -97 109 -157 10 -36 21 -94 24 -130 11 -128 32 -150
140 -150 34 0 97 -7 139 -15 79 -15 111 -12 106 9 -2 7 -48 52 -103 100 -55
48 -110 100 -122 114 -40 47 -82 216 -60 238 3 4 36 -21 73 -55 42 -38 76 -61
90 -61 21 0 22 3 14 25 -5 13 -20 41 -33 62 -13 21 -36 65 -52 98 -45 97 -90
157 -158 210 -35 27 -80 72 -98 100 -20 29 -64 71 -104 100 -87 62 -175 151
-175 176 0 10 5 19 10 19 14 0 262 -125 333 -167 45 -27 81 -63 152 -152 112
-141 117 -146 204 -215 73 -58 97 -101 92 -161 -3 -41 -28 -176 -36 -198 -4
-9 -4 -33 -1 -52 7 -35 7 -35 60 -35 65 0 87 -18 126 -104 34 -75 85 -125 175
-171 97 -50 104 -33 22 52 -44 46 -72 86 -87 123 -12 30 -48 111 -80 180 -33
69 -62 140 -66 158 -22 109 147 -68 245 -258 36 -69 65 -106 155 -197 110
-111 145 -163 146 -214 0 -52 36 -139 57 -139 19 0 17 162 -2 218 -8 23 -46
81 -84 128 -67 83 -121 175 -121 206 0 8 9 23 20 33 38 34 80 108 80 139 0 17
-10 48 -23 68 -45 74 -132 187 -142 184 -11 -3 -33 -144 -34 -226 -1 -59 -12
-87 -30 -76 -14 9 -72 109 -95 166 -10 25 -27 64 -37 87 -11 24 -19 46 -19 51
0 20 -87 139 -156 212 -85 92 -87 99 -34 172 18 24 30 54 30 71 0 38 -43 114
-70 122 -10 3 -49 -3 -86 -14 -101 -32 -124 -29 -171 22 -21 23 -59 69 -83
102 -97 129 -103 133 -239 165 -133 32 -191 68 -254 160 -87 127 -161 190
-327 278 -55 29 -87 54 -118 93 -24 30 -56 70 -71 89 -16 19 -46 44 -67 55
-60 30 -176 104 -204 131 -14 13 -54 31 -90 40 -57 14 -77 15 -165 4 -93 -11
-105 -11 -170 8 -88 26 -134 33 -160 23z"/>
<path d="M2875 5916 c-31 -32 -56 -47 -112 -65 -42 -13 -73 -28 -73 -36 0 -7
17 -25 38 -41 48 -37 100 -89 136 -136 16 -21 32 -36 36 -33 4 3 16 34 25 69
14 50 17 89 13 166 -3 56 -9 105 -14 110 -5 4 -26 -10 -49 -34z"/>
<path d="M3730 5827 c0 -7 19 -48 41 -92 23 -44 51 -111 63 -150 l22 -70 18
27 c18 28 36 112 39 183 l2 40 -52 6 c-42 5 -58 13 -79 38 -26 32 -54 41 -54
18z"/>
<path d="M1755 5303 c-37 -86 -37 -86 -96 -115 -59 -29 -61 -28 44 -57 48 -13
70 -15 72 -7 24 74 34 236 15 236 -6 0 -21 -26 -35 -57z"/>
<path d="M4898 4724 c-37 -20 -48 -43 -55 -117 -6 -68 7 -92 56 -99 18 -2 31
-16 47 -48 33 -66 65 -92 126 -101 45 -7 59 -15 91 -50 25 -28 37 -51 37 -71
0 -35 7 -35 -120 11 -47 17 -88 31 -92 31 -12 0 -9 -26 6 -57 8 -15 22 -47 31
-70 13 -31 28 -47 60 -64 41 -22 46 -22 113 -9 78 14 121 6 155 -32 28 -33 24
-161 -8 -223 -13 -27 -23 -51 -21 -53 5 -4 66 26 86 43 8 7 43 27 77 46 99 52
111 69 149 219 19 73 34 144 34 159 0 54 -70 132 -187 210 -49 34 -65 51 -83
94 -72 167 -70 166 -249 183 -174 17 -220 17 -253 -2z"/>
<path d="M1110 4534 c0 -8 5 -24 10 -35 12 -21 7 -42 -55 -219 -21 -58 -41
-131 -45 -164 -6 -42 -16 -66 -34 -85 -14 -15 -26 -35 -26 -45 0 -16 5 -18 38
-12 20 3 86 13 145 21 60 8 124 22 143 31 30 14 34 21 34 55 0 87 -94 344
-162 442 -21 30 -48 36 -48 11z"/>
<path d="M5765 3880 c-119 -23 -141 -31 -238 -83 -136 -73 -159 -87 -227 -136
-36 -26 -87 -60 -115 -76 -156 -91 -253 -181 -285 -265 -21 -56 -24 -64 -56
-135 -26 -59 -92 -159 -172 -258 -107 -133 -127 -233 -77 -390 14 -43 25 -91
25 -108 0 -46 -25 -94 -65 -124 -53 -41 -77 -96 -83 -185 -8 -144 23 -196 158
-264 94 -47 113 -70 145 -182 42 -148 150 -315 299 -461 142 -141 309 -248
486 -312 19 -7 44 -17 55 -21 66 -28 186 -55 335 -76 147 -21 251 -13 465 34
111 24 264 94 370 167 104 73 112 75 242 75 65 0 136 5 157 11 42 12 115 80
144 134 16 31 20 113 11 230 -4 57 -2 64 43 140 47 81 104 242 131 370 8 39
22 106 32 150 9 44 21 100 27 125 19 73 13 311 -10 410 -46 194 -135 481 -174
557 -20 41 -122 144 -315 320 -150 136 -225 185 -418 269 -99 43 -243 71 -465
89 -231 19 -311 18 -425 -5z m585 -69 c74 -11 166 -29 203 -41 163 -51 320
-142 466 -269 129 -113 293 -277 316 -316 13 -22 37 -85 53 -140 17 -55 35
-113 42 -129 21 -56 60 -211 81 -321 33 -180 17 -362 -55 -609 -9 -30 -16 -63
-16 -75 0 -34 -49 -171 -93 -256 -22 -44 -52 -102 -65 -129 -25 -49 -25 -50
-9 -97 35 -97 15 -184 -57 -247 -41 -36 -91 -52 -163 -52 -53 0 -83 7 -83 19
0 4 18 26 39 49 55 59 175 241 215 326 65 137 123 344 146 516 15 111 -1 368
-30 474 -74 277 -202 485 -395 639 -89 71 -221 156 -275 177 -19 7 -48 19 -65
26 -77 33 -217 74 -325 96 -87 17 -398 17 -465 0 -27 -7 -70 -18 -95 -24 -174
-40 -386 -150 -525 -272 -129 -113 -209 -201 -251 -276 -10 -19 -26 -42 -34
-52 -30 -34 -110 -214 -147 -328 -45 -139 -46 -152 -49 -379 -1 -135 -6 -227
-12 -233 -7 -7 -26 -2 -59 17 -95 55 -117 93 -116 201 1 76 20 114 92 181 l56
52 -2 66 c-1 36 -12 100 -24 143 -16 57 -20 94 -17 148 5 81 15 100 125 251
39 54 105 164 146 244 109 216 116 224 301 335 28 17 102 65 165 108 96 66
165 103 286 156 21 10 114 36 155 44 52 10 411 -5 540 -23z m-113 -411 c81
-11 104 -16 213 -49 222 -65 397 -169 547 -324 164 -169 243 -322 300 -582 19
-88 22 -402 4 -490 -55 -270 -122 -436 -245 -604 -176 -244 -374 -381 -671
-468 -83 -24 -352 -29 -497 -9 -201 28 -425 113 -581 222 -118 83 -168 127
-253 223 -134 152 -227 334 -275 541 -17 75 -18 407 -1 480 23 100 56 211 72
245 5 11 23 50 39 87 46 100 160 265 243 349 198 204 440 330 718 374 97 16
288 18 387 5z"/>
<path d="M5613 3276 c-55 -14 -103 -40 -103 -56 0 -13 15 -13 122 6 112 19
175 12 347 -42 90 -29 115 -33 122 -23 5 8 2 20 -8 31 -15 16 -41 26 -217 78
-78 23 -183 25 -263 6z"/>
<path d="M5495 3114 c-27 -8 -82 -30 -122 -50 -59 -29 -81 -47 -124 -101 -77
-98 -99 -164 -100 -294 0 -93 3 -116 28 -178 55 -141 169 -244 330 -296 209
-69 444 18 559 207 48 78 64 138 64 239 0 213 -127 390 -336 465 -77 28 -217
32 -299 8z m290 -65 c92 -35 147 -73 194 -136 55 -73 78 -127 91 -209 29 -180
-61 -350 -229 -432 -74 -36 -78 -37 -191 -36 -108 0 -119 2 -182 31 -162 76
-268 231 -268 394 0 103 36 201 102 279 38 45 145 106 228 129 56 16 187 6
255 -20z"/>
<path d="M5585 2658 c-33 -18 -65 -51 -65 -66 0 -14 36 -13 105 4 37 9 105 51
105 64 0 14 -120 12 -145 -2z"/>
<path d="M6625 3001 c-9 -16 45 -50 115 -71 37 -11 72 -20 78 -20 12 0 58 -25
119 -63 21 -14 71 -55 112 -92 40 -36 75 -64 77 -62 2 2 1 19 -2 37 -13 60
-124 155 -249 211 -78 34 -85 37 -162 53 -85 19 -80 18 -88 7z"/>
<path d="M6617 2769 c-75 -11 -177 -62 -241 -120 -105 -96 -162 -246 -147
-382 22 -184 120 -321 291 -405 l75 -37 140 0 140 0 74 39 c47 24 95 60 135
100 82 84 82 84 111 172 59 181 14 358 -124 494 -96 94 -184 133 -321 143 -41
2 -101 1 -133 -4z m221 -65 c74 -22 147 -70 211 -140 65 -71 87 -115 107 -208
13 -65 13 -81 0 -146 -26 -125 -119 -245 -225 -293 -26 -11 -56 -25 -69 -30
-37 -17 -210 -13 -265 6 -216 76 -361 318 -303 507 48 159 144 257 296 305 61
19 180 18 248 -1z"/>
<path d="M6660 2307 c0 -29 103 -147 128 -147 25 0 42 32 30 55 -16 28 -28 39
-85 74 -54 34 -73 38 -73 18z"/>
<path d="M6016 2161 c-3 -4 6 -19 19 -31 29 -27 80 -105 89 -136 4 -14 1 -28
-10 -39 -24 -23 -77 -12 -134 30 -69 50 -130 79 -143 66 -14 -14 61 -82 145
-133 120 -74 221 -36 204 75 -15 89 -141 215 -170 168z"/>
<path d="M5535 1835 c-134 -21 -188 -42 -251 -97 -62 -54 -85 -101 -91 -184
-7 -83 5 -111 60 -144 36 -22 137 -27 217 -10 153 33 225 40 279 30 95 -19
154 -56 262 -167 115 -119 152 -140 206 -118 46 19 79 58 98 114 19 56 19 97
0 152 -29 83 -45 107 -135 202 -129 137 -233 188 -445 222 -103 17 -94 17
-200 0z m283 -76 c88 -23 232 -92 269 -129 38 -37 83 -111 83 -136 0 -78 -92
-24 -113 66 -3 14 -13 34 -21 45 -13 19 -15 19 -33 2 -40 -36 -123 -11 -142
43 -9 27 -14 30 -33 24 -33 -11 -108 -6 -124 7 -8 6 -14 22 -14 35 0 12 -4 25
-9 29 -5 3 -41 -11 -79 -31 -56 -29 -75 -35 -101 -29 -69 15 -49 55 43 85 73
24 156 21 274 -11z"/>
<path d="M926 3385 c27 -65 10 -283 -30 -377 -9 -21 -16 -40 -16 -43 0 -11 28
10 72 51 38 36 85 73 192 152 17 13 49 31 70 39 l39 16 -29 24 c-16 12 -36 23
-44 23 -18 0 -60 25 -166 98 -93 63 -109 66 -88 17z"/>
<path d="M920 2724 l-30 -13 0 -93 c0 -96 22 -277 38 -319 5 -13 17 -49 27
-79 25 -76 76 -175 122 -236 54 -73 162 -195 192 -218 14 -11 71 -61 126 -111
55 -50 118 -106 140 -124 22 -19 74 -66 116 -105 42 -39 116 -105 164 -146 48
-41 120 -104 159 -141 135 -124 181 -166 286 -255 58 -50 114 -98 125 -107
103 -83 148 -115 265 -192 74 -49 180 -112 235 -140 148 -75 393 -170 550
-213 58 -16 144 -39 190 -51 77 -19 241 -40 400 -51 88 -6 187 -15 220 -20
195 -30 357 -44 510 -44 210 0 264 13 420 98 11 6 34 21 50 32 65 46 205 114
305 147 92 30 235 68 470 123 310 73 460 136 528 220 44 54 115 144 127 160
20 28 -7 25 -78 -9 -165 -79 -366 -107 -637 -87 -166 13 -170 12 -242 -10 -40
-13 -77 -26 -83 -31 -5 -4 -34 -14 -64 -23 -29 -9 -59 -20 -65 -24 -32 -25
-200 -62 -278 -62 -76 0 -153 -27 -237 -84 -42 -28 -89 -57 -104 -64 -40 -18
-103 -15 -203 9 l-88 21 -81 -28 c-97 -33 -184 -37 -234 -10 -45 24 -86 15
-153 -32 -46 -32 -60 -37 -105 -36 -43 1 -69 11 -150 56 -54 30 -115 58 -135
62 -38 7 -110 -8 -136 -28 -7 -5 -42 -10 -76 -10 -53 -1 -68 3 -97 25 -29 22
-39 42 -64 120 -16 52 -39 110 -52 130 -30 51 -99 83 -161 76 -62 -7 -75 -26
-68 -99 8 -84 -21 -106 -98 -74 -58 24 -355 216 -376 243 -15 20 -20 41 -20
93 0 80 -12 95 -110 136 -36 15 -74 35 -84 45 -25 23 -23 70 3 115 12 19 21
41 21 48 0 24 -55 65 -140 104 -57 26 -97 52 -121 79 -21 23 -78 124 -130 229
-100 201 -136 249 -195 260 -56 10 -66 -10 -21 -47 24 -19 37 -39 37 -54 0
-13 15 -57 34 -97 58 -127 74 -208 41 -208 -38 0 -148 127 -201 230 -47 93
-62 110 -96 110 -36 0 -99 -32 -151 -78 -90 -78 -150 -80 -176 -5 -20 55 -9
115 69 383 12 41 22 103 23 137 1 58 -2 65 -44 119 -24 32 -55 77 -69 100 -61
102 -101 127 -231 148 -63 10 -84 10 -109 0z"/>
<path d="M2106 2089 c-14 -11 -26 -27 -26 -35 0 -17 41 -28 74 -20 38 9 38 -6
1 -34 -54 -40 -70 -78 -59 -141 8 -45 15 -57 43 -76 43 -29 86 -29 135 0 24
15 48 22 64 19 34 -7 106 -79 187 -187 55 -74 127 -125 174 -125 62 0 190 -52
245 -99 10 -9 42 -52 71 -96 28 -44 61 -87 71 -96 10 -9 82 -54 159 -99 162
-96 185 -115 233 -190 42 -65 44 -66 147 -126 44 -26 103 -63 130 -84 104 -77
158 -90 262 -64 74 18 132 13 236 -24 45 -15 52 -15 110 1 63 17 176 45 302
73 39 9 94 24 123 35 42 15 80 19 180 19 141 0 137 -1 267 83 42 27 91 50 112
53 82 12 79 24 -15 70 -92 44 -179 111 -313 241 -123 118 -129 122 -200 143
-41 11 -103 29 -139 40 -159 48 -196 46 -285 -15 -60 -42 -116 -53 -171 -35
-49 16 -159 88 -242 158 -35 29 -81 61 -102 72 -52 26 -141 26 -245 -1 -44
-11 -90 -23 -103 -26 -38 -9 -19 -27 49 -44 85 -22 108 -33 147 -68 66 -57 20
-94 -118 -95 -106 -1 -156 20 -238 98 -62 58 -76 64 -232 92 -52 9 -119 22
-148 30 -73 18 -227 87 -295 132 -123 81 -294 236 -376 342 -74 95 -156 125
-215 79z m1377 -938 c125 -37 160 -41 347 -39 l185 3 90 -37 c106 -43 178 -54
255 -39 214 45 263 47 370 23 65 -15 139 -49 146 -67 29 -74 -118 -155 -282
-155 -66 0 -97 6 -184 37 l-105 37 -197 2 c-214 1 -211 1 -343 67 -44 22 -128
57 -186 77 -158 56 -203 82 -182 103 9 10 17 9 86 -12z"/>
</g>
</svg>
